<mxfile host="Electron" modified="2024-05-21T12:02:39.246Z" agent="Mozilla/5.0 (X11; Linux x86_64) AppleWebKit/537.36 (KHTML, like Gecko) draw.io/24.2.5 Chrome/120.0.6099.109 Electron/28.1.0 Safari/537.36" etag="D66b2e8NbevxEm4rL6IS" version="24.2.5" type="device" pages="4">
  <diagram id="C5RBs43oDa-KdzZeNtuy" name="FlowChart">
    <mxGraphModel dx="782" dy="461" grid="1" gridSize="10" guides="1" tooltips="1" connect="1" arrows="1" fold="1" page="1" pageScale="1" pageWidth="827" pageHeight="1169" math="0" shadow="0">
      <root>
        <mxCell id="WIyWlLk6GJQsqaUBKTNV-0" />
        <mxCell id="WIyWlLk6GJQsqaUBKTNV-1" parent="WIyWlLk6GJQsqaUBKTNV-0" />
        <mxCell id="ryBWtd0tFmzfpKorxyXH-6" style="edgeStyle=orthogonalEdgeStyle;rounded=0;orthogonalLoop=1;jettySize=auto;html=1;exitX=0.5;exitY=1;exitDx=0;exitDy=0;entryX=0.5;entryY=0;entryDx=0;entryDy=0;" parent="WIyWlLk6GJQsqaUBKTNV-1" source="WIyWlLk6GJQsqaUBKTNV-3" target="ryBWtd0tFmzfpKorxyXH-2" edge="1">
          <mxGeometry relative="1" as="geometry" />
        </mxCell>
        <mxCell id="WIyWlLk6GJQsqaUBKTNV-3" value="Initialize Device Object" style="rounded=1;whiteSpace=wrap;html=1;fontSize=12;glass=0;strokeWidth=1;shadow=0;" parent="WIyWlLk6GJQsqaUBKTNV-1" vertex="1">
          <mxGeometry x="160" y="80" width="120" height="40" as="geometry" />
        </mxCell>
        <mxCell id="ryBWtd0tFmzfpKorxyXH-0" value="" style="rounded=0;html=1;jettySize=auto;orthogonalLoop=1;fontSize=11;endArrow=block;endFill=0;endSize=8;strokeWidth=1;shadow=0;labelBackgroundColor=none;edgeStyle=orthogonalEdgeStyle;entryX=0.5;entryY=0;entryDx=0;entryDy=0;" parent="WIyWlLk6GJQsqaUBKTNV-1" target="WIyWlLk6GJQsqaUBKTNV-3" edge="1">
          <mxGeometry relative="1" as="geometry">
            <mxPoint x="220" y="20" as="sourcePoint" />
            <mxPoint x="220" y="70" as="targetPoint" />
            <Array as="points">
              <mxPoint x="220" y="60" />
              <mxPoint x="220" y="60" />
            </Array>
          </mxGeometry>
        </mxCell>
        <mxCell id="ryBWtd0tFmzfpKorxyXH-1" value="Main" style="text;html=1;align=center;verticalAlign=middle;resizable=0;points=[];autosize=1;strokeColor=none;fillColor=none;" parent="WIyWlLk6GJQsqaUBKTNV-1" vertex="1">
          <mxGeometry x="220" y="10" width="50" height="30" as="geometry" />
        </mxCell>
        <mxCell id="ryBWtd0tFmzfpKorxyXH-7" style="edgeStyle=orthogonalEdgeStyle;rounded=0;orthogonalLoop=1;jettySize=auto;html=1;exitX=0.5;exitY=1;exitDx=0;exitDy=0;entryX=0.5;entryY=0;entryDx=0;entryDy=0;" parent="WIyWlLk6GJQsqaUBKTNV-1" source="ryBWtd0tFmzfpKorxyXH-2" target="ryBWtd0tFmzfpKorxyXH-3" edge="1">
          <mxGeometry relative="1" as="geometry" />
        </mxCell>
        <mxCell id="ryBWtd0tFmzfpKorxyXH-11" style="edgeStyle=orthogonalEdgeStyle;rounded=0;orthogonalLoop=1;jettySize=auto;html=1;exitX=1;exitY=0.5;exitDx=0;exitDy=0;entryX=0;entryY=0.5;entryDx=0;entryDy=0;" parent="WIyWlLk6GJQsqaUBKTNV-1" source="ryBWtd0tFmzfpKorxyXH-2" target="ryBWtd0tFmzfpKorxyXH-9" edge="1">
          <mxGeometry relative="1" as="geometry" />
        </mxCell>
        <mxCell id="ryBWtd0tFmzfpKorxyXH-2" value="Initialize Demod Object" style="rounded=1;whiteSpace=wrap;html=1;fontSize=12;glass=0;strokeWidth=1;shadow=0;" parent="WIyWlLk6GJQsqaUBKTNV-1" vertex="1">
          <mxGeometry x="160" y="150" width="120" height="40" as="geometry" />
        </mxCell>
        <mxCell id="ryBWtd0tFmzfpKorxyXH-12" style="edgeStyle=orthogonalEdgeStyle;rounded=0;orthogonalLoop=1;jettySize=auto;html=1;exitX=1;exitY=0.5;exitDx=0;exitDy=0;entryX=0;entryY=0.5;entryDx=0;entryDy=0;" parent="WIyWlLk6GJQsqaUBKTNV-1" source="ryBWtd0tFmzfpKorxyXH-3" target="ryBWtd0tFmzfpKorxyXH-10" edge="1">
          <mxGeometry relative="1" as="geometry" />
        </mxCell>
        <mxCell id="ryBWtd0tFmzfpKorxyXH-16" style="edgeStyle=orthogonalEdgeStyle;rounded=0;orthogonalLoop=1;jettySize=auto;html=1;exitX=0.5;exitY=1;exitDx=0;exitDy=0;entryX=0.5;entryY=0;entryDx=0;entryDy=0;" parent="WIyWlLk6GJQsqaUBKTNV-1" source="ryBWtd0tFmzfpKorxyXH-3" target="ryBWtd0tFmzfpKorxyXH-15" edge="1">
          <mxGeometry relative="1" as="geometry" />
        </mxCell>
        <mxCell id="ryBWtd0tFmzfpKorxyXH-3" value="Initialize Output Object" style="rounded=1;whiteSpace=wrap;html=1;fontSize=12;glass=0;strokeWidth=1;shadow=0;" parent="WIyWlLk6GJQsqaUBKTNV-1" vertex="1">
          <mxGeometry x="160" y="220" width="120" height="40" as="geometry" />
        </mxCell>
        <mxCell id="ryBWtd0tFmzfpKorxyXH-5" value="" style="endArrow=classic;html=1;rounded=0;exitX=1;exitY=0.5;exitDx=0;exitDy=0;" parent="WIyWlLk6GJQsqaUBKTNV-1" source="WIyWlLk6GJQsqaUBKTNV-3" edge="1">
          <mxGeometry width="50" height="50" relative="1" as="geometry">
            <mxPoint x="340" y="110" as="sourcePoint" />
            <mxPoint x="330" y="100" as="targetPoint" />
          </mxGeometry>
        </mxCell>
        <mxCell id="ryBWtd0tFmzfpKorxyXH-8" value="Init Device Thread" style="rounded=1;whiteSpace=wrap;html=1;fontSize=12;glass=0;strokeWidth=1;shadow=0;" parent="WIyWlLk6GJQsqaUBKTNV-1" vertex="1">
          <mxGeometry x="330" y="80" width="120" height="40" as="geometry" />
        </mxCell>
        <mxCell id="ryBWtd0tFmzfpKorxyXH-9" value="Init Demod Thread" style="rounded=1;whiteSpace=wrap;html=1;fontSize=12;glass=0;strokeWidth=1;shadow=0;" parent="WIyWlLk6GJQsqaUBKTNV-1" vertex="1">
          <mxGeometry x="330" y="150" width="120" height="40" as="geometry" />
        </mxCell>
        <mxCell id="ryBWtd0tFmzfpKorxyXH-10" value="Init Object Thread" style="rounded=1;whiteSpace=wrap;html=1;fontSize=12;glass=0;strokeWidth=1;shadow=0;" parent="WIyWlLk6GJQsqaUBKTNV-1" vertex="1">
          <mxGeometry x="330" y="220" width="120" height="40" as="geometry" />
        </mxCell>
        <mxCell id="ryBWtd0tFmzfpKorxyXH-18" style="edgeStyle=orthogonalEdgeStyle;rounded=0;orthogonalLoop=1;jettySize=auto;html=1;exitX=0.5;exitY=1;exitDx=0;exitDy=0;entryX=0.5;entryY=0;entryDx=0;entryDy=0;" parent="WIyWlLk6GJQsqaUBKTNV-1" source="ryBWtd0tFmzfpKorxyXH-15" target="ryBWtd0tFmzfpKorxyXH-17" edge="1">
          <mxGeometry relative="1" as="geometry" />
        </mxCell>
        <mxCell id="ryBWtd0tFmzfpKorxyXH-15" value="Identify Connected Hardware" style="rounded=1;whiteSpace=wrap;html=1;fontSize=12;glass=0;strokeWidth=1;shadow=0;" parent="WIyWlLk6GJQsqaUBKTNV-1" vertex="1">
          <mxGeometry x="160" y="290" width="120" height="40" as="geometry" />
        </mxCell>
        <mxCell id="ryBWtd0tFmzfpKorxyXH-20" style="edgeStyle=orthogonalEdgeStyle;rounded=0;orthogonalLoop=1;jettySize=auto;html=1;exitX=0.5;exitY=1;exitDx=0;exitDy=0;entryX=0.5;entryY=0;entryDx=0;entryDy=0;" parent="WIyWlLk6GJQsqaUBKTNV-1" source="ryBWtd0tFmzfpKorxyXH-17" target="ryBWtd0tFmzfpKorxyXH-19" edge="1">
          <mxGeometry relative="1" as="geometry" />
        </mxCell>
        <mxCell id="ryBWtd0tFmzfpKorxyXH-17" value="Open Hardware Device" style="rounded=1;whiteSpace=wrap;html=1;fontSize=12;glass=0;strokeWidth=1;shadow=0;" parent="WIyWlLk6GJQsqaUBKTNV-1" vertex="1">
          <mxGeometry x="160" y="360" width="120" height="40" as="geometry" />
        </mxCell>
        <mxCell id="ryBWtd0tFmzfpKorxyXH-22" style="edgeStyle=orthogonalEdgeStyle;rounded=0;orthogonalLoop=1;jettySize=auto;html=1;exitX=0.5;exitY=1;exitDx=0;exitDy=0;entryX=0.5;entryY=0;entryDx=0;entryDy=0;" parent="WIyWlLk6GJQsqaUBKTNV-1" source="ryBWtd0tFmzfpKorxyXH-19" target="ryBWtd0tFmzfpKorxyXH-21" edge="1">
          <mxGeometry relative="1" as="geometry" />
        </mxCell>
        <mxCell id="ryBWtd0tFmzfpKorxyXH-19" value="Connect Signal Handlers for safe exit" style="rounded=1;whiteSpace=wrap;html=1;fontSize=12;glass=0;strokeWidth=1;shadow=0;" parent="WIyWlLk6GJQsqaUBKTNV-1" vertex="1">
          <mxGeometry x="160" y="430" width="120" height="40" as="geometry" />
        </mxCell>
        <mxCell id="ryBWtd0tFmzfpKorxyXH-25" style="edgeStyle=orthogonalEdgeStyle;rounded=0;orthogonalLoop=1;jettySize=auto;html=1;exitX=0.5;exitY=1;exitDx=0;exitDy=0;entryX=0.5;entryY=0;entryDx=0;entryDy=0;" parent="WIyWlLk6GJQsqaUBKTNV-1" source="ryBWtd0tFmzfpKorxyXH-21" target="ryBWtd0tFmzfpKorxyXH-24" edge="1">
          <mxGeometry relative="1" as="geometry" />
        </mxCell>
        <mxCell id="ryBWtd0tFmzfpKorxyXH-21" value="Configure Device Settings" style="rounded=1;whiteSpace=wrap;html=1;fontSize=12;glass=0;strokeWidth=1;shadow=0;" parent="WIyWlLk6GJQsqaUBKTNV-1" vertex="1">
          <mxGeometry x="160" y="500" width="120" height="40" as="geometry" />
        </mxCell>
        <mxCell id="ryBWtd0tFmzfpKorxyXH-23" value="&lt;div style=&quot;text-align: left;&quot;&gt;&lt;span style=&quot;background-color: initial;&quot;&gt;Gain&lt;/span&gt;&lt;/div&gt;&lt;div style=&quot;text-align: left;&quot;&gt;Frequency&lt;/div&gt;&lt;div style=&quot;text-align: left;&quot;&gt;ppm error&lt;/div&gt;&lt;div style=&quot;text-align: left;&quot;&gt;Sampel Rate&lt;/div&gt;&lt;div&gt;&lt;br&gt;&lt;/div&gt;" style="text;html=1;align=center;verticalAlign=middle;resizable=0;points=[];autosize=1;strokeColor=none;fillColor=none;" parent="WIyWlLk6GJQsqaUBKTNV-1" vertex="1">
          <mxGeometry x="285" y="478" width="90" height="90" as="geometry" />
        </mxCell>
        <mxCell id="ryBWtd0tFmzfpKorxyXH-27" style="edgeStyle=orthogonalEdgeStyle;rounded=0;orthogonalLoop=1;jettySize=auto;html=1;exitX=0.5;exitY=1;exitDx=0;exitDy=0;entryX=0.5;entryY=0;entryDx=0;entryDy=0;" parent="WIyWlLk6GJQsqaUBKTNV-1" source="ryBWtd0tFmzfpKorxyXH-24" target="ryBWtd0tFmzfpKorxyXH-26" edge="1">
          <mxGeometry relative="1" as="geometry" />
        </mxCell>
        <mxCell id="ryBWtd0tFmzfpKorxyXH-24" value="Device Buffer Reset" style="rounded=1;whiteSpace=wrap;html=1;fontSize=12;glass=0;strokeWidth=1;shadow=0;" parent="WIyWlLk6GJQsqaUBKTNV-1" vertex="1">
          <mxGeometry x="160" y="565" width="120" height="40" as="geometry" />
        </mxCell>
        <mxCell id="ryBWtd0tFmzfpKorxyXH-28" style="edgeStyle=orthogonalEdgeStyle;rounded=0;orthogonalLoop=1;jettySize=auto;html=1;exitX=0.5;exitY=1;exitDx=0;exitDy=0;" parent="WIyWlLk6GJQsqaUBKTNV-1" source="ryBWtd0tFmzfpKorxyXH-26" edge="1">
          <mxGeometry relative="1" as="geometry">
            <mxPoint x="115" y="760" as="targetPoint" />
          </mxGeometry>
        </mxCell>
        <mxCell id="ryBWtd0tFmzfpKorxyXH-37" style="edgeStyle=orthogonalEdgeStyle;rounded=0;orthogonalLoop=1;jettySize=auto;html=1;exitX=1;exitY=0.5;exitDx=0;exitDy=0;" parent="WIyWlLk6GJQsqaUBKTNV-1" source="ryBWtd0tFmzfpKorxyXH-26" edge="1">
          <mxGeometry relative="1" as="geometry">
            <mxPoint x="370" y="740" as="targetPoint" />
          </mxGeometry>
        </mxCell>
        <mxCell id="ryBWtd0tFmzfpKorxyXH-26" value="Output Thread Create" style="rounded=1;whiteSpace=wrap;html=1;fontSize=12;glass=0;strokeWidth=1;shadow=0;" parent="WIyWlLk6GJQsqaUBKTNV-1" vertex="1">
          <mxGeometry x="40" y="660" width="150" height="50" as="geometry" />
        </mxCell>
        <mxCell id="ryBWtd0tFmzfpKorxyXH-30" style="edgeStyle=orthogonalEdgeStyle;rounded=0;orthogonalLoop=1;jettySize=auto;html=1;exitX=0.5;exitY=1;exitDx=0;exitDy=0;" parent="WIyWlLk6GJQsqaUBKTNV-1" source="ryBWtd0tFmzfpKorxyXH-29" edge="1">
          <mxGeometry relative="1" as="geometry">
            <mxPoint x="115" y="950" as="targetPoint" />
          </mxGeometry>
        </mxCell>
        <mxCell id="ryBWtd0tFmzfpKorxyXH-29" value="Lock Output State Object" style="rounded=1;whiteSpace=wrap;html=1;fontSize=12;glass=0;strokeWidth=1;shadow=0;" parent="WIyWlLk6GJQsqaUBKTNV-1" vertex="1">
          <mxGeometry x="40" y="830" width="150" height="50" as="geometry" />
        </mxCell>
        <mxCell id="ryBWtd0tFmzfpKorxyXH-33" style="edgeStyle=orthogonalEdgeStyle;rounded=0;orthogonalLoop=1;jettySize=auto;html=1;exitX=0.5;exitY=1;exitDx=0;exitDy=0;entryX=0.5;entryY=0;entryDx=0;entryDy=0;" parent="WIyWlLk6GJQsqaUBKTNV-1" source="ryBWtd0tFmzfpKorxyXH-31" target="ryBWtd0tFmzfpKorxyXH-32" edge="1">
          <mxGeometry relative="1" as="geometry" />
        </mxCell>
        <mxCell id="ryBWtd0tFmzfpKorxyXH-31" value="Write result to output File" style="rounded=1;whiteSpace=wrap;html=1;fontSize=12;glass=0;strokeWidth=1;shadow=0;" parent="WIyWlLk6GJQsqaUBKTNV-1" vertex="1">
          <mxGeometry x="40" y="910" width="150" height="50" as="geometry" />
        </mxCell>
        <mxCell id="ryBWtd0tFmzfpKorxyXH-59" style="edgeStyle=orthogonalEdgeStyle;rounded=0;orthogonalLoop=1;jettySize=auto;html=1;exitX=0;exitY=0.5;exitDx=0;exitDy=0;entryX=0;entryY=0.5;entryDx=0;entryDy=0;" parent="WIyWlLk6GJQsqaUBKTNV-1" source="ryBWtd0tFmzfpKorxyXH-32" target="ryBWtd0tFmzfpKorxyXH-34" edge="1">
          <mxGeometry relative="1" as="geometry" />
        </mxCell>
        <mxCell id="ryBWtd0tFmzfpKorxyXH-32" value="Unlock Output State Object" style="rounded=1;whiteSpace=wrap;html=1;fontSize=12;glass=0;strokeWidth=1;shadow=0;" parent="WIyWlLk6GJQsqaUBKTNV-1" vertex="1">
          <mxGeometry x="40" y="990" width="150" height="50" as="geometry" />
        </mxCell>
        <mxCell id="ryBWtd0tFmzfpKorxyXH-35" style="edgeStyle=orthogonalEdgeStyle;rounded=0;orthogonalLoop=1;jettySize=auto;html=1;exitX=0.5;exitY=1;exitDx=0;exitDy=0;entryX=0.5;entryY=0;entryDx=0;entryDy=0;" parent="WIyWlLk6GJQsqaUBKTNV-1" source="ryBWtd0tFmzfpKorxyXH-34" target="ryBWtd0tFmzfpKorxyXH-29" edge="1">
          <mxGeometry relative="1" as="geometry" />
        </mxCell>
        <mxCell id="ryBWtd0tFmzfpKorxyXH-34" value="Wait for Ready State from Demod" style="rounded=1;whiteSpace=wrap;html=1;fontSize=12;glass=0;strokeWidth=1;shadow=0;" parent="WIyWlLk6GJQsqaUBKTNV-1" vertex="1">
          <mxGeometry x="40" y="760" width="150" height="50" as="geometry" />
        </mxCell>
        <mxCell id="ryBWtd0tFmzfpKorxyXH-39" style="edgeStyle=orthogonalEdgeStyle;rounded=0;orthogonalLoop=1;jettySize=auto;html=1;exitX=0.5;exitY=1;exitDx=0;exitDy=0;" parent="WIyWlLk6GJQsqaUBKTNV-1" source="ryBWtd0tFmzfpKorxyXH-38" edge="1">
          <mxGeometry relative="1" as="geometry">
            <mxPoint x="375" y="850" as="targetPoint" />
          </mxGeometry>
        </mxCell>
        <mxCell id="ryBWtd0tFmzfpKorxyXH-62" style="edgeStyle=orthogonalEdgeStyle;rounded=0;orthogonalLoop=1;jettySize=auto;html=1;exitX=1;exitY=0.5;exitDx=0;exitDy=0;entryX=0;entryY=0.5;entryDx=0;entryDy=0;" parent="WIyWlLk6GJQsqaUBKTNV-1" source="ryBWtd0tFmzfpKorxyXH-38" target="ryBWtd0tFmzfpKorxyXH-61" edge="1">
          <mxGeometry relative="1" as="geometry" />
        </mxCell>
        <mxCell id="ryBWtd0tFmzfpKorxyXH-38" value="Demod Thread Create" style="rounded=1;whiteSpace=wrap;html=1;fontSize=12;glass=0;strokeWidth=1;shadow=0;" parent="WIyWlLk6GJQsqaUBKTNV-1" vertex="1">
          <mxGeometry x="300" y="740" width="150" height="50" as="geometry" />
        </mxCell>
        <mxCell id="ryBWtd0tFmzfpKorxyXH-43" style="edgeStyle=orthogonalEdgeStyle;rounded=0;orthogonalLoop=1;jettySize=auto;html=1;exitX=0.5;exitY=1;exitDx=0;exitDy=0;entryX=0.5;entryY=0;entryDx=0;entryDy=0;" parent="WIyWlLk6GJQsqaUBKTNV-1" source="ryBWtd0tFmzfpKorxyXH-40" target="ryBWtd0tFmzfpKorxyXH-41" edge="1">
          <mxGeometry relative="1" as="geometry" />
        </mxCell>
        <mxCell id="ryBWtd0tFmzfpKorxyXH-40" value="Set output target to Output State Object" style="rounded=1;whiteSpace=wrap;html=1;fontSize=12;glass=0;strokeWidth=1;shadow=0;" parent="WIyWlLk6GJQsqaUBKTNV-1" vertex="1">
          <mxGeometry x="300" y="850" width="150" height="50" as="geometry" />
        </mxCell>
        <mxCell id="ryBWtd0tFmzfpKorxyXH-44" style="edgeStyle=orthogonalEdgeStyle;rounded=0;orthogonalLoop=1;jettySize=auto;html=1;exitX=0.5;exitY=1;exitDx=0;exitDy=0;entryX=0.5;entryY=0;entryDx=0;entryDy=0;" parent="WIyWlLk6GJQsqaUBKTNV-1" source="ryBWtd0tFmzfpKorxyXH-41" target="ryBWtd0tFmzfpKorxyXH-45" edge="1">
          <mxGeometry relative="1" as="geometry">
            <mxPoint x="375" y="1030" as="targetPoint" />
          </mxGeometry>
        </mxCell>
        <mxCell id="ryBWtd0tFmzfpKorxyXH-41" value="Wait for Demod Ready state" style="rounded=1;whiteSpace=wrap;html=1;fontSize=12;glass=0;strokeWidth=1;shadow=0;" parent="WIyWlLk6GJQsqaUBKTNV-1" vertex="1">
          <mxGeometry x="300" y="930" width="150" height="50" as="geometry" />
        </mxCell>
        <mxCell id="ryBWtd0tFmzfpKorxyXH-47" style="edgeStyle=orthogonalEdgeStyle;rounded=0;orthogonalLoop=1;jettySize=auto;html=1;exitX=1;exitY=0.5;exitDx=0;exitDy=0;entryX=0;entryY=0.5;entryDx=0;entryDy=0;" parent="WIyWlLk6GJQsqaUBKTNV-1" source="ryBWtd0tFmzfpKorxyXH-45" target="ryBWtd0tFmzfpKorxyXH-46" edge="1">
          <mxGeometry relative="1" as="geometry" />
        </mxCell>
        <mxCell id="ryBWtd0tFmzfpKorxyXH-45" value="Lock Demod State Object Read-Write Pointer" style="rounded=1;whiteSpace=wrap;html=1;fontSize=12;glass=0;strokeWidth=1;shadow=0;" parent="WIyWlLk6GJQsqaUBKTNV-1" vertex="1">
          <mxGeometry x="300" y="1010" width="150" height="50" as="geometry" />
        </mxCell>
        <mxCell id="ryBWtd0tFmzfpKorxyXH-49" style="edgeStyle=orthogonalEdgeStyle;rounded=0;orthogonalLoop=1;jettySize=auto;html=1;exitX=0.5;exitY=1;exitDx=0;exitDy=0;entryX=0.5;entryY=0;entryDx=0;entryDy=0;" parent="WIyWlLk6GJQsqaUBKTNV-1" source="ryBWtd0tFmzfpKorxyXH-46" target="ryBWtd0tFmzfpKorxyXH-48" edge="1">
          <mxGeometry relative="1" as="geometry" />
        </mxCell>
        <mxCell id="ryBWtd0tFmzfpKorxyXH-46" value="Perform Demod algorithm on stored data" style="rounded=1;whiteSpace=wrap;html=1;fontSize=12;glass=0;strokeWidth=1;shadow=0;" parent="WIyWlLk6GJQsqaUBKTNV-1" vertex="1">
          <mxGeometry x="480" y="1010" width="150" height="50" as="geometry" />
        </mxCell>
        <mxCell id="ryBWtd0tFmzfpKorxyXH-51" style="edgeStyle=orthogonalEdgeStyle;rounded=0;orthogonalLoop=1;jettySize=auto;html=1;exitX=0.5;exitY=1;exitDx=0;exitDy=0;entryX=0.5;entryY=0;entryDx=0;entryDy=0;" parent="WIyWlLk6GJQsqaUBKTNV-1" source="ryBWtd0tFmzfpKorxyXH-48" target="ryBWtd0tFmzfpKorxyXH-50" edge="1">
          <mxGeometry relative="1" as="geometry" />
        </mxCell>
        <mxCell id="ryBWtd0tFmzfpKorxyXH-48" value="Unlock Demod Read-Write Pointer" style="rounded=1;whiteSpace=wrap;html=1;fontSize=12;glass=0;strokeWidth=1;shadow=0;" parent="WIyWlLk6GJQsqaUBKTNV-1" vertex="1">
          <mxGeometry x="480" y="1090" width="150" height="50" as="geometry" />
        </mxCell>
        <mxCell id="ryBWtd0tFmzfpKorxyXH-53" style="edgeStyle=orthogonalEdgeStyle;rounded=0;orthogonalLoop=1;jettySize=auto;html=1;exitX=0.5;exitY=1;exitDx=0;exitDy=0;entryX=0.5;entryY=0;entryDx=0;entryDy=0;" parent="WIyWlLk6GJQsqaUBKTNV-1" source="ryBWtd0tFmzfpKorxyXH-50" target="ryBWtd0tFmzfpKorxyXH-52" edge="1">
          <mxGeometry relative="1" as="geometry" />
        </mxCell>
        <mxCell id="ryBWtd0tFmzfpKorxyXH-50" value="Lock Output State Read-Write Pointer" style="rounded=1;whiteSpace=wrap;html=1;fontSize=12;glass=0;strokeWidth=1;shadow=0;" parent="WIyWlLk6GJQsqaUBKTNV-1" vertex="1">
          <mxGeometry x="480" y="1169" width="150" height="50" as="geometry" />
        </mxCell>
        <mxCell id="ryBWtd0tFmzfpKorxyXH-55" style="edgeStyle=orthogonalEdgeStyle;rounded=0;orthogonalLoop=1;jettySize=auto;html=1;exitX=0;exitY=0.5;exitDx=0;exitDy=0;entryX=1;entryY=0.5;entryDx=0;entryDy=0;" parent="WIyWlLk6GJQsqaUBKTNV-1" source="ryBWtd0tFmzfpKorxyXH-52" target="ryBWtd0tFmzfpKorxyXH-54" edge="1">
          <mxGeometry relative="1" as="geometry" />
        </mxCell>
        <mxCell id="ryBWtd0tFmzfpKorxyXH-52" value="Write Demod Result to Output Result" style="rounded=1;whiteSpace=wrap;html=1;fontSize=12;glass=0;strokeWidth=1;shadow=0;" parent="WIyWlLk6GJQsqaUBKTNV-1" vertex="1">
          <mxGeometry x="480" y="1250" width="150" height="50" as="geometry" />
        </mxCell>
        <mxCell id="ryBWtd0tFmzfpKorxyXH-57" style="edgeStyle=orthogonalEdgeStyle;rounded=0;orthogonalLoop=1;jettySize=auto;html=1;exitX=0;exitY=0.5;exitDx=0;exitDy=0;entryX=1;entryY=0.5;entryDx=0;entryDy=0;" parent="WIyWlLk6GJQsqaUBKTNV-1" source="ryBWtd0tFmzfpKorxyXH-54" target="ryBWtd0tFmzfpKorxyXH-56" edge="1">
          <mxGeometry relative="1" as="geometry" />
        </mxCell>
        <mxCell id="ryBWtd0tFmzfpKorxyXH-54" value="Unlock Ouptut State Read Write" style="rounded=1;whiteSpace=wrap;html=1;fontSize=12;glass=0;strokeWidth=1;shadow=0;" parent="WIyWlLk6GJQsqaUBKTNV-1" vertex="1">
          <mxGeometry x="310" y="1250" width="140" height="50" as="geometry" />
        </mxCell>
        <mxCell id="ryBWtd0tFmzfpKorxyXH-58" style="edgeStyle=orthogonalEdgeStyle;rounded=0;orthogonalLoop=1;jettySize=auto;html=1;exitX=0.5;exitY=0;exitDx=0;exitDy=0;entryX=1;entryY=0.5;entryDx=0;entryDy=0;" parent="WIyWlLk6GJQsqaUBKTNV-1" source="ryBWtd0tFmzfpKorxyXH-56" target="ryBWtd0tFmzfpKorxyXH-34" edge="1">
          <mxGeometry relative="1" as="geometry">
            <Array as="points">
              <mxPoint x="215" y="1090" />
              <mxPoint x="240" y="1090" />
              <mxPoint x="240" y="785" />
            </Array>
          </mxGeometry>
        </mxCell>
        <mxCell id="ryBWtd0tFmzfpKorxyXH-60" style="edgeStyle=orthogonalEdgeStyle;rounded=0;orthogonalLoop=1;jettySize=auto;html=1;exitX=0.5;exitY=0;exitDx=0;exitDy=0;entryX=0;entryY=0.5;entryDx=0;entryDy=0;" parent="WIyWlLk6GJQsqaUBKTNV-1" source="ryBWtd0tFmzfpKorxyXH-56" target="ryBWtd0tFmzfpKorxyXH-41" edge="1">
          <mxGeometry relative="1" as="geometry">
            <Array as="points">
              <mxPoint x="215" y="1090" />
              <mxPoint x="240" y="1090" />
              <mxPoint x="240" y="955" />
            </Array>
          </mxGeometry>
        </mxCell>
        <mxCell id="ryBWtd0tFmzfpKorxyXH-56" value="Send Ouptut State Ready Signal" style="rounded=1;whiteSpace=wrap;html=1;fontSize=12;glass=0;strokeWidth=1;shadow=0;" parent="WIyWlLk6GJQsqaUBKTNV-1" vertex="1">
          <mxGeometry x="145" y="1250" width="140" height="50" as="geometry" />
        </mxCell>
        <mxCell id="ryBWtd0tFmzfpKorxyXH-63" style="edgeStyle=orthogonalEdgeStyle;rounded=0;orthogonalLoop=1;jettySize=auto;html=1;exitX=0.5;exitY=1;exitDx=0;exitDy=0;" parent="WIyWlLk6GJQsqaUBKTNV-1" source="ryBWtd0tFmzfpKorxyXH-61" edge="1">
          <mxGeometry relative="1" as="geometry">
            <mxPoint x="774.5714285714287" y="930" as="targetPoint" />
          </mxGeometry>
        </mxCell>
        <mxCell id="ryBWtd0tFmzfpKorxyXH-61" value="Dongle Thread Create" style="rounded=1;whiteSpace=wrap;html=1;fontSize=12;glass=0;strokeWidth=1;shadow=0;" parent="WIyWlLk6GJQsqaUBKTNV-1" vertex="1">
          <mxGeometry x="700" y="810" width="150" height="50" as="geometry" />
        </mxCell>
        <mxCell id="ryBWtd0tFmzfpKorxyXH-68" style="edgeStyle=orthogonalEdgeStyle;rounded=0;orthogonalLoop=1;jettySize=auto;html=1;exitX=0.5;exitY=1;exitDx=0;exitDy=0;entryX=0.5;entryY=0;entryDx=0;entryDy=0;" parent="WIyWlLk6GJQsqaUBKTNV-1" source="ryBWtd0tFmzfpKorxyXH-64" target="ryBWtd0tFmzfpKorxyXH-67" edge="1">
          <mxGeometry relative="1" as="geometry" />
        </mxCell>
        <mxCell id="ryBWtd0tFmzfpKorxyXH-64" value="Start Asyncronous Device Read" style="rounded=1;whiteSpace=wrap;html=1;fontSize=12;glass=0;strokeWidth=1;shadow=0;" parent="WIyWlLk6GJQsqaUBKTNV-1" vertex="1">
          <mxGeometry x="700" y="890" width="150" height="50" as="geometry" />
        </mxCell>
        <mxCell id="ryBWtd0tFmzfpKorxyXH-71" style="edgeStyle=orthogonalEdgeStyle;rounded=0;orthogonalLoop=1;jettySize=auto;html=1;exitX=0.5;exitY=1;exitDx=0;exitDy=0;entryX=0.5;entryY=0;entryDx=0;entryDy=0;" parent="WIyWlLk6GJQsqaUBKTNV-1" source="ryBWtd0tFmzfpKorxyXH-67" target="ryBWtd0tFmzfpKorxyXH-70" edge="1">
          <mxGeometry relative="1" as="geometry" />
        </mxCell>
        <mxCell id="ryBWtd0tFmzfpKorxyXH-67" value="Set demod target for Demod State Object" style="rounded=1;whiteSpace=wrap;html=1;fontSize=12;glass=0;strokeWidth=1;shadow=0;" parent="WIyWlLk6GJQsqaUBKTNV-1" vertex="1">
          <mxGeometry x="700" y="980" width="150" height="50" as="geometry" />
        </mxCell>
        <mxCell id="ryBWtd0tFmzfpKorxyXH-72" style="edgeStyle=orthogonalEdgeStyle;rounded=0;orthogonalLoop=1;jettySize=auto;html=1;exitX=0.5;exitY=1;exitDx=0;exitDy=0;" parent="WIyWlLk6GJQsqaUBKTNV-1" source="ryBWtd0tFmzfpKorxyXH-70" edge="1">
          <mxGeometry relative="1" as="geometry">
            <mxPoint x="775.4117647058824" y="1160" as="targetPoint" />
          </mxGeometry>
        </mxCell>
        <mxCell id="ryBWtd0tFmzfpKorxyXH-70" value="Convert data to signed int and fill Dongle states buffer" style="rounded=1;whiteSpace=wrap;html=1;fontSize=12;glass=0;strokeWidth=1;shadow=0;" parent="WIyWlLk6GJQsqaUBKTNV-1" vertex="1">
          <mxGeometry x="700" y="1060" width="150" height="50" as="geometry" />
        </mxCell>
        <mxCell id="ryBWtd0tFmzfpKorxyXH-76" style="edgeStyle=orthogonalEdgeStyle;rounded=0;orthogonalLoop=1;jettySize=auto;html=1;exitX=1;exitY=0.5;exitDx=0;exitDy=0;entryX=0;entryY=0.5;entryDx=0;entryDy=0;" parent="WIyWlLk6GJQsqaUBKTNV-1" source="ryBWtd0tFmzfpKorxyXH-73" target="ryBWtd0tFmzfpKorxyXH-75" edge="1">
          <mxGeometry relative="1" as="geometry" />
        </mxCell>
        <mxCell id="ryBWtd0tFmzfpKorxyXH-73" value="Lock Demod States Read-Write Pointer" style="rounded=1;whiteSpace=wrap;html=1;fontSize=12;glass=0;strokeWidth=1;shadow=0;" parent="WIyWlLk6GJQsqaUBKTNV-1" vertex="1">
          <mxGeometry x="700" y="1160" width="150" height="50" as="geometry" />
        </mxCell>
        <mxCell id="ryBWtd0tFmzfpKorxyXH-78" style="edgeStyle=orthogonalEdgeStyle;rounded=0;orthogonalLoop=1;jettySize=auto;html=1;exitX=0.5;exitY=1;exitDx=0;exitDy=0;entryX=0.5;entryY=0;entryDx=0;entryDy=0;" parent="WIyWlLk6GJQsqaUBKTNV-1" source="ryBWtd0tFmzfpKorxyXH-75" target="ryBWtd0tFmzfpKorxyXH-77" edge="1">
          <mxGeometry relative="1" as="geometry" />
        </mxCell>
        <mxCell id="ryBWtd0tFmzfpKorxyXH-75" value="Copy Dongle States Result Buffer to Demod buffer" style="rounded=1;whiteSpace=wrap;html=1;fontSize=12;glass=0;strokeWidth=1;shadow=0;" parent="WIyWlLk6GJQsqaUBKTNV-1" vertex="1">
          <mxGeometry x="900" y="1160" width="150" height="50" as="geometry" />
        </mxCell>
        <mxCell id="ryBWtd0tFmzfpKorxyXH-80" style="edgeStyle=orthogonalEdgeStyle;rounded=0;orthogonalLoop=1;jettySize=auto;html=1;exitX=0;exitY=0.5;exitDx=0;exitDy=0;entryX=1;entryY=0.5;entryDx=0;entryDy=0;" parent="WIyWlLk6GJQsqaUBKTNV-1" source="ryBWtd0tFmzfpKorxyXH-77" target="ryBWtd0tFmzfpKorxyXH-79" edge="1">
          <mxGeometry relative="1" as="geometry" />
        </mxCell>
        <mxCell id="ryBWtd0tFmzfpKorxyXH-77" value="Unlock Demod State Read-Write Pointer" style="rounded=1;whiteSpace=wrap;html=1;fontSize=12;glass=0;strokeWidth=1;shadow=0;" parent="WIyWlLk6GJQsqaUBKTNV-1" vertex="1">
          <mxGeometry x="900" y="1240" width="150" height="50" as="geometry" />
        </mxCell>
        <mxCell id="ryBWtd0tFmzfpKorxyXH-81" style="edgeStyle=orthogonalEdgeStyle;rounded=0;orthogonalLoop=1;jettySize=auto;html=1;exitX=0;exitY=0.5;exitDx=0;exitDy=0;entryX=1;entryY=0.5;entryDx=0;entryDy=0;" parent="WIyWlLk6GJQsqaUBKTNV-1" source="ryBWtd0tFmzfpKorxyXH-79" target="ryBWtd0tFmzfpKorxyXH-41" edge="1">
          <mxGeometry relative="1" as="geometry">
            <Array as="points">
              <mxPoint x="660" y="1265" />
              <mxPoint x="660" y="955" />
            </Array>
          </mxGeometry>
        </mxCell>
        <mxCell id="ryBWtd0tFmzfpKorxyXH-79" value="Send Demod Ready Signal" style="rounded=1;whiteSpace=wrap;html=1;fontSize=12;glass=0;strokeWidth=1;shadow=0;" parent="WIyWlLk6GJQsqaUBKTNV-1" vertex="1">
          <mxGeometry x="700" y="1240" width="150" height="50" as="geometry" />
        </mxCell>
      </root>
    </mxGraphModel>
  </diagram>
  <diagram id="kdXLxhO00D5wFwQU5DeK" name="ClassDiagrams">
    <mxGraphModel dx="782" dy="461" grid="1" gridSize="10" guides="1" tooltips="1" connect="1" arrows="1" fold="1" page="1" pageScale="1" pageWidth="850" pageHeight="1100" math="0" shadow="0">
      <root>
        <mxCell id="0" />
        <mxCell id="1" parent="0" />
        <mxCell id="YwMrmA-6lsPae44D3DCS-1" value="Dongle" style="swimlane;fontStyle=2;align=center;verticalAlign=top;childLayout=stackLayout;horizontal=1;startSize=26;horizontalStack=0;resizeParent=1;resizeLast=0;collapsible=1;marginBottom=0;rounded=0;shadow=0;strokeWidth=1;" parent="1" vertex="1">
          <mxGeometry x="105" y="430" width="255" height="230" as="geometry">
            <mxRectangle x="230" y="140" width="160" height="26" as="alternateBounds" />
          </mxGeometry>
        </mxCell>
        <mxCell id="YwMrmA-6lsPae44D3DCS-2" value="- frequency : uint32_t&lt;div&gt;- sampleRate : uint32_t&lt;/div&gt;&lt;div&gt;&lt;span style=&quot;background-color: initial;&quot;&gt;- bufferLength : uint32_t&lt;/span&gt;&lt;br&gt;&lt;/div&gt;&lt;div&gt;&lt;br&gt;&lt;/div&gt;" style="text;html=1;align=left;verticalAlign=middle;resizable=0;points=[];autosize=1;strokeColor=none;fillColor=none;" parent="YwMrmA-6lsPae44D3DCS-1" vertex="1">
          <mxGeometry y="26" width="255" height="70" as="geometry" />
        </mxCell>
        <mxCell id="YwMrmA-6lsPae44D3DCS-3" value="" style="line;html=1;strokeWidth=1;align=left;verticalAlign=middle;spacingTop=-1;spacingLeft=3;spacingRight=3;rotatable=0;labelPosition=right;points=[];portConstraint=eastwest;" parent="YwMrmA-6lsPae44D3DCS-1" vertex="1">
          <mxGeometry y="96" width="255" height="6" as="geometry" />
        </mxCell>
        <mxCell id="_pg6gIe2L6WCPwgNMmxK-2" value="&lt;div style=&quot;color: rgb(204, 204, 204); background-color: rgb(31, 31, 31); font-family: &amp;quot;Droid Sans Mono&amp;quot;, &amp;quot;monospace&amp;quot;, monospace; line-height: 106%; white-space-collapse: preserve; font-size: 7px;&quot;&gt;&lt;div style=&quot;line-height: 106%;&quot;&gt;    &lt;span style=&quot;color: #569cd6;&quot;&gt;virtual&lt;/span&gt; &lt;span style=&quot;color: #569cd6;&quot;&gt;int&lt;/span&gt; &lt;span style=&quot;color: #dcdcaa;&quot;&gt;FrequencySet&lt;/span&gt;(&lt;span style=&quot;color: #4ec9b0;&quot;&gt;uint32_t&lt;/span&gt; &lt;span style=&quot;color: #9cdcfe;&quot;&gt;frequency&lt;/span&gt;) &lt;span style=&quot;color: #d4d4d4;&quot;&gt;=&lt;/span&gt; &lt;span style=&quot;color: #b5cea8;&quot;&gt;0&lt;/span&gt;;&lt;/div&gt;&lt;div style=&quot;line-height: 106%;&quot;&gt;    &lt;span style=&quot;color: #569cd6;&quot;&gt;virtual&lt;/span&gt; &lt;span style=&quot;color: #569cd6;&quot;&gt;int&lt;/span&gt; &lt;span style=&quot;color: #dcdcaa;&quot;&gt;SampleRateSet&lt;/span&gt;(&lt;span style=&quot;color: #4ec9b0;&quot;&gt;uint32_t&lt;/span&gt; &lt;span style=&quot;color: #9cdcfe;&quot;&gt;sampleRate&lt;/span&gt;) &lt;span style=&quot;color: #d4d4d4;&quot;&gt;=&lt;/span&gt; &lt;span style=&quot;color: #b5cea8;&quot;&gt;0&lt;/span&gt;;&lt;/div&gt;&lt;div style=&quot;line-height: 106%;&quot;&gt;    &lt;span style=&quot;color: #569cd6;&quot;&gt;virtual&lt;/span&gt; &lt;span style=&quot;color: #569cd6;&quot;&gt;int&lt;/span&gt; &lt;span style=&quot;color: #dcdcaa;&quot;&gt;BitDepthSet&lt;/span&gt;(&lt;span style=&quot;color: #4ec9b0;&quot;&gt;uint16_t&lt;/span&gt; &lt;span style=&quot;color: #9cdcfe;&quot;&gt;bitDepth&lt;/span&gt;) &lt;span style=&quot;color: #d4d4d4;&quot;&gt;=&lt;/span&gt; &lt;span style=&quot;color: #b5cea8;&quot;&gt;0&lt;/span&gt;;&lt;/div&gt;&lt;/div&gt;" style="text;html=1;align=left;verticalAlign=middle;resizable=0;points=[];autosize=1;strokeColor=none;fillColor=none;" parent="YwMrmA-6lsPae44D3DCS-1" vertex="1">
          <mxGeometry y="102" width="255" height="40" as="geometry" />
        </mxCell>
        <mxCell id="YwMrmA-6lsPae44D3DCS-4" value="HackRF" style="swimlane;fontStyle=0;align=center;verticalAlign=top;childLayout=stackLayout;horizontal=1;startSize=26;horizontalStack=0;resizeParent=1;resizeLast=0;collapsible=1;marginBottom=0;rounded=0;shadow=0;strokeWidth=1;" parent="1" vertex="1">
          <mxGeometry x="10" y="730" width="250" height="250" as="geometry">
            <mxRectangle x="130" y="380" width="160" height="26" as="alternateBounds" />
          </mxGeometry>
        </mxCell>
        <mxCell id="YwMrmA-6lsPae44D3DCS-5" value="- devicePtr : hackrf_device*&lt;div&gt;- LNAGain : uint32_t&lt;/div&gt;&lt;div&gt;- VGAGain : uint32_t&lt;/div&gt;&lt;div&gt;- DemodTarget : Demod*&lt;/div&gt;&lt;div&gt;- sampleBuffer : uint8_t*&lt;/div&gt;&lt;div&gt;- partId: uint32_t[4]&lt;/div&gt;&lt;div&gt;- serialNo: uint32_t[4]&lt;/div&gt;" style="text;html=1;align=left;verticalAlign=middle;resizable=0;points=[];autosize=1;strokeColor=none;fillColor=none;" parent="YwMrmA-6lsPae44D3DCS-4" vertex="1">
          <mxGeometry y="26" width="250" height="110" as="geometry" />
        </mxCell>
        <mxCell id="YwMrmA-6lsPae44D3DCS-6" value="" style="line;html=1;strokeWidth=1;align=left;verticalAlign=middle;spacingTop=-1;spacingLeft=3;spacingRight=3;rotatable=0;labelPosition=right;points=[];portConstraint=eastwest;" parent="YwMrmA-6lsPae44D3DCS-4" vertex="1">
          <mxGeometry y="136" width="250" height="14" as="geometry" />
        </mxCell>
        <mxCell id="YwMrmA-6lsPae44D3DCS-7" value="&lt;div style=&quot;text-align: left;&quot;&gt;&lt;span style=&quot;background-color: initial;&quot;&gt;rxCallback(hackrf_transfer*) : int&amp;nbsp;&lt;/span&gt;&lt;/div&gt;&lt;div style=&quot;text-align: left;&quot;&gt;LockDemodTarget()&lt;/div&gt;&lt;div style=&quot;text-align: left;&quot;&gt;TransferBufToDemodTarget(DemodTarget)&lt;/div&gt;&lt;div style=&quot;text-align: left;&quot;&gt;FreeDemodTargetLock()&lt;/div&gt;&lt;div style=&quot;text-align: left;&quot;&gt;&lt;br&gt;&lt;/div&gt;&lt;div&gt;&lt;br&gt;&lt;/div&gt;" style="text;html=1;align=center;verticalAlign=middle;resizable=0;points=[];autosize=1;strokeColor=none;fillColor=none;" parent="YwMrmA-6lsPae44D3DCS-4" vertex="1">
          <mxGeometry y="150" width="250" height="100" as="geometry" />
        </mxCell>
        <mxCell id="YwMrmA-6lsPae44D3DCS-8" value="" style="endArrow=block;endSize=10;endFill=0;shadow=0;strokeWidth=1;rounded=0;curved=0;edgeStyle=elbowEdgeStyle;elbow=vertical;" parent="1" source="YwMrmA-6lsPae44D3DCS-4" target="YwMrmA-6lsPae44D3DCS-1" edge="1">
          <mxGeometry width="160" relative="1" as="geometry">
            <mxPoint x="179" y="533" as="sourcePoint" />
            <mxPoint x="179" y="533" as="targetPoint" />
          </mxGeometry>
        </mxCell>
        <mxCell id="YwMrmA-6lsPae44D3DCS-9" value="RTLSDR" style="swimlane;fontStyle=0;align=center;verticalAlign=top;childLayout=stackLayout;horizontal=1;startSize=26;horizontalStack=0;resizeParent=1;resizeLast=0;collapsible=1;marginBottom=0;rounded=0;shadow=0;strokeWidth=1;" parent="1" vertex="1">
          <mxGeometry x="270" y="730" width="160" height="70" as="geometry">
            <mxRectangle x="340" y="380" width="170" height="26" as="alternateBounds" />
          </mxGeometry>
        </mxCell>
        <mxCell id="YwMrmA-6lsPae44D3DCS-10" value="" style="line;html=1;strokeWidth=1;align=left;verticalAlign=middle;spacingTop=-1;spacingLeft=3;spacingRight=3;rotatable=0;labelPosition=right;points=[];portConstraint=eastwest;" parent="YwMrmA-6lsPae44D3DCS-9" vertex="1">
          <mxGeometry y="26" width="160" height="44" as="geometry" />
        </mxCell>
        <mxCell id="YwMrmA-6lsPae44D3DCS-11" value="" style="endArrow=block;endSize=10;endFill=0;shadow=0;strokeWidth=1;rounded=0;curved=0;edgeStyle=elbowEdgeStyle;elbow=vertical;" parent="1" source="YwMrmA-6lsPae44D3DCS-9" target="YwMrmA-6lsPae44D3DCS-1" edge="1">
          <mxGeometry width="160" relative="1" as="geometry">
            <mxPoint x="189" y="703" as="sourcePoint" />
            <mxPoint x="289" y="601" as="targetPoint" />
          </mxGeometry>
        </mxCell>
        <mxCell id="YwMrmA-6lsPae44D3DCS-12" value="Demod" style="swimlane;fontStyle=0;align=center;verticalAlign=top;childLayout=stackLayout;horizontal=1;startSize=26;horizontalStack=0;resizeParent=1;resizeLast=0;collapsible=1;marginBottom=0;rounded=0;shadow=0;strokeWidth=1;" parent="1" vertex="1">
          <mxGeometry x="480" y="350" width="190" height="350" as="geometry">
            <mxRectangle x="550" y="140" width="160" height="26" as="alternateBounds" />
          </mxGeometry>
        </mxCell>
        <mxCell id="chMUId_b6E44mfdiBwKV-1" value="&lt;div style=&quot;&quot;&gt;&lt;span style=&quot;background-color: initial;&quot;&gt;- thread : pthread?&amp;nbsp;&lt;/span&gt;&lt;/div&gt;&lt;div style=&quot;&quot;&gt;- interpolationRate : int&lt;/div&gt;&lt;div style=&quot;&quot;&gt;- decimationRate : int&lt;/div&gt;&lt;div style=&quot;&quot;&gt;- sigCenterFrequency : uint32_t&lt;/div&gt;&lt;div&gt;- sigBandwidth : uint32_t&lt;/div&gt;&lt;div&gt;- sampleBuffer :&amp;nbsp;&lt;/div&gt;" style="text;html=1;align=left;verticalAlign=middle;resizable=0;points=[];autosize=1;strokeColor=none;fillColor=none;" parent="YwMrmA-6lsPae44D3DCS-12" vertex="1">
          <mxGeometry y="26" width="190" height="100" as="geometry" />
        </mxCell>
        <mxCell id="YwMrmA-6lsPae44D3DCS-13" value="" style="line;html=1;strokeWidth=1;align=left;verticalAlign=middle;spacingTop=-1;spacingLeft=3;spacingRight=3;rotatable=0;labelPosition=right;points=[];portConstraint=eastwest;" parent="YwMrmA-6lsPae44D3DCS-12" vertex="1">
          <mxGeometry y="126" width="190" height="194" as="geometry" />
        </mxCell>
        <mxCell id="GhDapSB-RU9emvOaJ1xz-2" value="- rationalResample() : void" style="text;html=1;align=left;verticalAlign=middle;resizable=0;points=[];autosize=1;strokeColor=none;fillColor=none;" parent="YwMrmA-6lsPae44D3DCS-12" vertex="1">
          <mxGeometry y="320" width="190" height="30" as="geometry" />
        </mxCell>
        <mxCell id="YwMrmA-6lsPae44D3DCS-14" value="" style="endArrow=open;shadow=0;strokeWidth=1;rounded=0;curved=0;endFill=1;edgeStyle=elbowEdgeStyle;elbow=vertical;" parent="1" source="YwMrmA-6lsPae44D3DCS-1" target="YwMrmA-6lsPae44D3DCS-12" edge="1">
          <mxGeometry x="0.5" y="41" relative="1" as="geometry">
            <mxPoint x="359" y="522" as="sourcePoint" />
            <mxPoint x="519" y="522" as="targetPoint" />
            <mxPoint x="-40" y="32" as="offset" />
          </mxGeometry>
        </mxCell>
        <mxCell id="YwMrmA-6lsPae44D3DCS-15" value="0..1" style="resizable=0;align=left;verticalAlign=bottom;labelBackgroundColor=none;fontSize=12;" parent="YwMrmA-6lsPae44D3DCS-14" connectable="0" vertex="1">
          <mxGeometry x="-1" relative="1" as="geometry">
            <mxPoint y="4" as="offset" />
          </mxGeometry>
        </mxCell>
        <mxCell id="YwMrmA-6lsPae44D3DCS-16" value="1" style="resizable=0;align=right;verticalAlign=bottom;labelBackgroundColor=none;fontSize=12;" parent="YwMrmA-6lsPae44D3DCS-14" connectable="0" vertex="1">
          <mxGeometry x="1" relative="1" as="geometry">
            <mxPoint x="-7" y="4" as="offset" />
          </mxGeometry>
        </mxCell>
        <mxCell id="YwMrmA-6lsPae44D3DCS-17" value="Targets" style="text;html=1;resizable=0;points=[];;align=center;verticalAlign=middle;labelBackgroundColor=none;rounded=0;shadow=0;strokeWidth=1;fontSize=12;" parent="YwMrmA-6lsPae44D3DCS-14" vertex="1" connectable="0">
          <mxGeometry x="0.5" y="49" relative="1" as="geometry">
            <mxPoint x="-38" y="40" as="offset" />
          </mxGeometry>
        </mxCell>
        <mxCell id="YwMrmA-6lsPae44D3DCS-18" value="Output" style="swimlane;fontStyle=0;align=center;verticalAlign=top;childLayout=stackLayout;horizontal=1;startSize=26;horizontalStack=0;resizeParent=1;resizeLast=0;collapsible=1;marginBottom=0;rounded=0;shadow=0;strokeWidth=1;" parent="1" vertex="1">
          <mxGeometry x="980" y="730" width="320" height="200" as="geometry">
            <mxRectangle x="550" y="140" width="160" height="26" as="alternateBounds" />
          </mxGeometry>
        </mxCell>
        <mxCell id="p5LRZWWwHKfmS-p1OV6v-1" value="- mFile: FILE*&lt;div&gt;- mFilename: std::string&lt;/div&gt;&lt;div&gt;- mresultBuffer: std::array&amp;lt;MAXIMUM_BUF_LENGTH&amp;gt;&lt;/div&gt;&lt;div&gt;- mresultLength: int&lt;/div&gt;&lt;div&gt;- moutputRate: int&lt;/div&gt;" style="text;html=1;align=left;verticalAlign=middle;resizable=0;points=[];autosize=1;strokeColor=none;fillColor=none;" parent="YwMrmA-6lsPae44D3DCS-18" vertex="1">
          <mxGeometry y="26" width="320" height="90" as="geometry" />
        </mxCell>
        <mxCell id="YwMrmA-6lsPae44D3DCS-19" value="" style="line;html=1;strokeWidth=1;align=left;verticalAlign=middle;spacingTop=-1;spacingLeft=3;spacingRight=3;rotatable=0;labelPosition=right;points=[];portConstraint=eastwest;" parent="YwMrmA-6lsPae44D3DCS-18" vertex="1">
          <mxGeometry y="116" width="320" height="44" as="geometry" />
        </mxCell>
        <mxCell id="p5LRZWWwHKfmS-p1OV6v-3" value="Text" style="text;html=1;align=left;verticalAlign=middle;resizable=0;points=[];autosize=1;strokeColor=none;fillColor=none;" parent="YwMrmA-6lsPae44D3DCS-18" vertex="1">
          <mxGeometry y="160" width="320" height="30" as="geometry" />
        </mxCell>
        <mxCell id="YwMrmA-6lsPae44D3DCS-20" value="AM Demod" style="swimlane;fontStyle=0;align=center;verticalAlign=top;childLayout=stackLayout;horizontal=1;startSize=26;horizontalStack=0;resizeParent=1;resizeLast=0;collapsible=1;marginBottom=0;rounded=0;shadow=0;strokeWidth=1;" parent="1" vertex="1">
          <mxGeometry x="600" y="930" width="160" height="70" as="geometry">
            <mxRectangle x="340" y="380" width="170" height="26" as="alternateBounds" />
          </mxGeometry>
        </mxCell>
        <mxCell id="YwMrmA-6lsPae44D3DCS-21" value="" style="line;html=1;strokeWidth=1;align=left;verticalAlign=middle;spacingTop=-1;spacingLeft=3;spacingRight=3;rotatable=0;labelPosition=right;points=[];portConstraint=eastwest;" parent="YwMrmA-6lsPae44D3DCS-20" vertex="1">
          <mxGeometry y="26" width="160" height="44" as="geometry" />
        </mxCell>
        <mxCell id="YwMrmA-6lsPae44D3DCS-22" value="WBFM Demod" style="swimlane;fontStyle=0;align=center;verticalAlign=top;childLayout=stackLayout;horizontal=1;startSize=26;horizontalStack=0;resizeParent=1;resizeLast=0;collapsible=1;marginBottom=0;rounded=0;shadow=0;strokeWidth=1;" parent="1" vertex="1">
          <mxGeometry x="440" y="755" width="160" height="70" as="geometry">
            <mxRectangle x="340" y="380" width="170" height="26" as="alternateBounds" />
          </mxGeometry>
        </mxCell>
        <mxCell id="YwMrmA-6lsPae44D3DCS-23" value="" style="line;html=1;strokeWidth=1;align=left;verticalAlign=middle;spacingTop=-1;spacingLeft=3;spacingRight=3;rotatable=0;labelPosition=right;points=[];portConstraint=eastwest;" parent="YwMrmA-6lsPae44D3DCS-22" vertex="1">
          <mxGeometry y="26" width="160" height="44" as="geometry" />
        </mxCell>
        <mxCell id="YwMrmA-6lsPae44D3DCS-24" value="TACAN Demod" style="swimlane;fontStyle=0;align=center;verticalAlign=top;childLayout=stackLayout;horizontal=1;startSize=26;horizontalStack=0;resizeParent=1;resizeLast=0;collapsible=1;marginBottom=0;rounded=0;shadow=0;strokeWidth=1;" parent="1" vertex="1">
          <mxGeometry x="430" y="860" width="160" height="70" as="geometry">
            <mxRectangle x="340" y="380" width="170" height="26" as="alternateBounds" />
          </mxGeometry>
        </mxCell>
        <mxCell id="YwMrmA-6lsPae44D3DCS-25" value="" style="line;html=1;strokeWidth=1;align=left;verticalAlign=middle;spacingTop=-1;spacingLeft=3;spacingRight=3;rotatable=0;labelPosition=right;points=[];portConstraint=eastwest;" parent="YwMrmA-6lsPae44D3DCS-24" vertex="1">
          <mxGeometry y="26" width="160" height="44" as="geometry" />
        </mxCell>
        <mxCell id="YwMrmA-6lsPae44D3DCS-26" value="ATC Demod" style="swimlane;fontStyle=0;align=center;verticalAlign=top;childLayout=stackLayout;horizontal=1;startSize=26;horizontalStack=0;resizeParent=1;resizeLast=0;collapsible=1;marginBottom=0;rounded=0;shadow=0;strokeWidth=1;" parent="1" vertex="1">
          <mxGeometry x="600" y="1020" width="160" height="70" as="geometry">
            <mxRectangle x="340" y="380" width="170" height="26" as="alternateBounds" />
          </mxGeometry>
        </mxCell>
        <mxCell id="YwMrmA-6lsPae44D3DCS-27" value="" style="line;html=1;strokeWidth=1;align=left;verticalAlign=middle;spacingTop=-1;spacingLeft=3;spacingRight=3;rotatable=0;labelPosition=right;points=[];portConstraint=eastwest;" parent="YwMrmA-6lsPae44D3DCS-26" vertex="1">
          <mxGeometry y="26" width="160" height="44" as="geometry" />
        </mxCell>
        <mxCell id="YwMrmA-6lsPae44D3DCS-28" value="GPS Demod" style="swimlane;fontStyle=0;align=center;verticalAlign=top;childLayout=stackLayout;horizontal=1;startSize=26;horizontalStack=0;resizeParent=1;resizeLast=0;collapsible=1;marginBottom=0;rounded=0;shadow=0;strokeWidth=1;" parent="1" vertex="1">
          <mxGeometry x="620" y="840" width="160" height="70" as="geometry">
            <mxRectangle x="340" y="380" width="170" height="26" as="alternateBounds" />
          </mxGeometry>
        </mxCell>
        <mxCell id="YwMrmA-6lsPae44D3DCS-29" value="" style="line;html=1;strokeWidth=1;align=left;verticalAlign=middle;spacingTop=-1;spacingLeft=3;spacingRight=3;rotatable=0;labelPosition=right;points=[];portConstraint=eastwest;" parent="YwMrmA-6lsPae44D3DCS-28" vertex="1">
          <mxGeometry y="26" width="160" height="44" as="geometry" />
        </mxCell>
        <mxCell id="YwMrmA-6lsPae44D3DCS-30" value="NB FM Demod" style="swimlane;fontStyle=0;align=center;verticalAlign=top;childLayout=stackLayout;horizontal=1;startSize=26;horizontalStack=0;resizeParent=1;resizeLast=0;collapsible=1;marginBottom=0;rounded=0;shadow=0;strokeWidth=1;" parent="1" vertex="1">
          <mxGeometry x="680" y="640" width="160" height="70" as="geometry">
            <mxRectangle x="340" y="380" width="170" height="26" as="alternateBounds" />
          </mxGeometry>
        </mxCell>
        <mxCell id="YwMrmA-6lsPae44D3DCS-31" value="" style="line;html=1;strokeWidth=1;align=left;verticalAlign=middle;spacingTop=-1;spacingLeft=3;spacingRight=3;rotatable=0;labelPosition=right;points=[];portConstraint=eastwest;" parent="YwMrmA-6lsPae44D3DCS-30" vertex="1">
          <mxGeometry y="26" width="160" height="44" as="geometry" />
        </mxCell>
        <mxCell id="YwMrmA-6lsPae44D3DCS-32" value="1090 Demod" style="swimlane;fontStyle=0;align=center;verticalAlign=top;childLayout=stackLayout;horizontal=1;startSize=26;horizontalStack=0;resizeParent=1;resizeLast=0;collapsible=1;marginBottom=0;rounded=0;shadow=0;strokeWidth=1;" parent="1" vertex="1">
          <mxGeometry x="430" y="1020" width="160" height="70" as="geometry">
            <mxRectangle x="340" y="380" width="170" height="26" as="alternateBounds" />
          </mxGeometry>
        </mxCell>
        <mxCell id="YwMrmA-6lsPae44D3DCS-33" value="" style="line;html=1;strokeWidth=1;align=left;verticalAlign=middle;spacingTop=-1;spacingLeft=3;spacingRight=3;rotatable=0;labelPosition=right;points=[];portConstraint=eastwest;" parent="YwMrmA-6lsPae44D3DCS-32" vertex="1">
          <mxGeometry y="26" width="160" height="44" as="geometry" />
        </mxCell>
        <mxCell id="YwMrmA-6lsPae44D3DCS-34" style="edgeStyle=orthogonalEdgeStyle;rounded=0;orthogonalLoop=1;jettySize=auto;html=1;exitX=0.5;exitY=1;exitDx=0;exitDy=0;entryX=0.5;entryY=0;entryDx=0;entryDy=0;" parent="1" source="YwMrmA-6lsPae44D3DCS-36" target="YwMrmA-6lsPae44D3DCS-1" edge="1">
          <mxGeometry relative="1" as="geometry" />
        </mxCell>
        <mxCell id="YwMrmA-6lsPae44D3DCS-35" value="Has A" style="edgeLabel;html=1;align=center;verticalAlign=middle;resizable=0;points=[];" parent="YwMrmA-6lsPae44D3DCS-34" vertex="1" connectable="0">
          <mxGeometry x="-0.0613" y="2" relative="1" as="geometry">
            <mxPoint x="18" as="offset" />
          </mxGeometry>
        </mxCell>
        <mxCell id="YwMrmA-6lsPae44D3DCS-36" value="Device List" style="swimlane;fontStyle=2;align=center;verticalAlign=top;childLayout=stackLayout;horizontal=1;startSize=26;horizontalStack=0;resizeParent=1;resizeLast=0;collapsible=1;marginBottom=0;rounded=0;shadow=0;strokeWidth=1;" parent="1" vertex="1">
          <mxGeometry x="150" y="120" width="160" height="140" as="geometry">
            <mxRectangle x="230" y="140" width="160" height="26" as="alternateBounds" />
          </mxGeometry>
        </mxCell>
        <mxCell id="YwMrmA-6lsPae44D3DCS-37" value="" style="line;html=1;strokeWidth=1;align=left;verticalAlign=middle;spacingTop=-1;spacingLeft=3;spacingRight=3;rotatable=0;labelPosition=right;points=[];portConstraint=eastwest;" parent="YwMrmA-6lsPae44D3DCS-36" vertex="1">
          <mxGeometry y="26" width="160" height="114" as="geometry" />
        </mxCell>
        <mxCell id="chMUId_b6E44mfdiBwKV-2" value="Goal of Demod Blocks&lt;span style=&quot;background-color: initial;&quot;&gt;&amp;nbsp;&lt;/span&gt;&lt;div&gt;&lt;div&gt;&lt;br&gt;&lt;/div&gt;&lt;div style=&quot;text-align: left;&quot;&gt;&lt;ul&gt;&lt;li&gt;To provide blocks for filtering IF signal into desired passband:&amp;nbsp;&lt;/li&gt;&lt;ul&gt;&lt;li&gt;Example for a given bandwidth (WB FM for example), center the incoming signal on only the bandwidth of the FM signal&lt;/li&gt;&lt;/ul&gt;&lt;li&gt;Implement the resampling blocks to get to audio IF for processing of audio&lt;/li&gt;&lt;li&gt;OOK/PCM/CW Tone processing/interpretation&lt;/li&gt;&lt;ul&gt;&lt;li&gt;OOK/PCM Have an average power calculator to detect when pulses occur.&amp;nbsp;&lt;/li&gt;&lt;li&gt;For CW: Determine pulse length for distinguishing dots/dashes&lt;/li&gt;&lt;/ul&gt;&lt;li&gt;Blocks for 1090 PPM Decoding&lt;/li&gt;&lt;li&gt;AM Demodulation&lt;/li&gt;&lt;li&gt;Multichannel listening&lt;/li&gt;&lt;/ul&gt;&lt;/div&gt;&lt;/div&gt;" style="text;html=1;align=center;verticalAlign=middle;resizable=0;points=[];autosize=1;strokeColor=none;fillColor=none;" parent="1" vertex="1">
          <mxGeometry x="355" y="125" width="740" height="200" as="geometry" />
        </mxCell>
        <mxCell id="p5LRZWWwHKfmS-p1OV6v-4" value="FFT Output" style="swimlane;fontStyle=0;align=center;verticalAlign=top;childLayout=stackLayout;horizontal=1;startSize=26;horizontalStack=0;resizeParent=1;resizeLast=0;collapsible=1;marginBottom=0;rounded=0;shadow=0;strokeWidth=1;" parent="1" vertex="1">
          <mxGeometry x="810" y="960" width="300" height="190" as="geometry">
            <mxRectangle x="550" y="140" width="160" height="26" as="alternateBounds" />
          </mxGeometry>
        </mxCell>
        <mxCell id="p5LRZWWwHKfmS-p1OV6v-16" value="- mFFTBinSize :&amp;nbsp;" style="text;html=1;align=left;verticalAlign=middle;resizable=0;points=[];autosize=1;strokeColor=none;fillColor=none;" parent="p5LRZWWwHKfmS-p1OV6v-4" vertex="1">
          <mxGeometry y="26" width="300" height="30" as="geometry" />
        </mxCell>
        <mxCell id="p5LRZWWwHKfmS-p1OV6v-6" value="" style="line;html=1;strokeWidth=1;align=left;verticalAlign=middle;spacingTop=-1;spacingLeft=3;spacingRight=3;rotatable=0;labelPosition=right;points=[];portConstraint=eastwest;" parent="p5LRZWWwHKfmS-p1OV6v-4" vertex="1">
          <mxGeometry y="56" width="300" height="44" as="geometry" />
        </mxCell>
        <mxCell id="p5LRZWWwHKfmS-p1OV6v-7" value="Text" style="text;html=1;align=left;verticalAlign=middle;resizable=0;points=[];autosize=1;strokeColor=none;fillColor=none;" parent="p5LRZWWwHKfmS-p1OV6v-4" vertex="1">
          <mxGeometry y="100" width="300" height="30" as="geometry" />
        </mxCell>
        <mxCell id="p5LRZWWwHKfmS-p1OV6v-8" value="WAV Output" style="swimlane;fontStyle=0;align=center;verticalAlign=top;childLayout=stackLayout;horizontal=1;startSize=26;horizontalStack=0;resizeParent=1;resizeLast=0;collapsible=1;marginBottom=0;rounded=0;shadow=0;strokeWidth=1;" parent="1" vertex="1">
          <mxGeometry x="1170" y="960" width="440" height="360" as="geometry">
            <mxRectangle x="550" y="140" width="160" height="26" as="alternateBounds" />
          </mxGeometry>
        </mxCell>
        <mxCell id="p5LRZWWwHKfmS-p1OV6v-17" value="- mSampleRate: uint32_t&lt;div&gt;- mNumChannels: int16_t&lt;/div&gt;&lt;div&gt;- mBitsPerSample: int16_t&lt;/div&gt;&lt;div&gt;- mSampRateBitsChan: uint32_t #(sampleRate * BitsPerSample * Channels)/8&lt;/div&gt;&lt;div&gt;- mBitsChs : uint16_t # (BitsPerSample * Channels)&lt;/div&gt;&lt;div&gt;&lt;br&gt;&lt;/div&gt;&lt;div&gt;&lt;br&gt;&lt;/div&gt;&lt;div&gt;constants:&lt;/div&gt;&lt;div&gt;- WAVE_OUTPUT : &quot;WAVE&quot;&lt;/div&gt;&lt;div&gt;- FMT : &quot;fmt&quot;&lt;/div&gt;&lt;div&gt;- RIFF : &quot;RIFF&quot;&lt;/div&gt;&lt;div&gt;- SAMP_RATE: 44100&lt;/div&gt;&lt;div&gt;&lt;br&gt;&lt;/div&gt;&lt;div&gt;&lt;br&gt;&lt;/div&gt;" style="text;html=1;align=left;verticalAlign=middle;resizable=0;points=[];autosize=1;strokeColor=none;fillColor=none;" parent="p5LRZWWwHKfmS-p1OV6v-8" vertex="1">
          <mxGeometry y="26" width="440" height="210" as="geometry" />
        </mxCell>
        <mxCell id="p5LRZWWwHKfmS-p1OV6v-10" value="" style="line;html=1;strokeWidth=1;align=left;verticalAlign=middle;spacingTop=-1;spacingLeft=3;spacingRight=3;rotatable=0;labelPosition=right;points=[];portConstraint=eastwest;" parent="p5LRZWWwHKfmS-p1OV6v-8" vertex="1">
          <mxGeometry y="236" width="440" height="94" as="geometry" />
        </mxCell>
        <mxCell id="p5LRZWWwHKfmS-p1OV6v-11" value="Text" style="text;html=1;align=left;verticalAlign=middle;resizable=0;points=[];autosize=1;strokeColor=none;fillColor=none;" parent="p5LRZWWwHKfmS-p1OV6v-8" vertex="1">
          <mxGeometry y="330" width="440" height="30" as="geometry" />
        </mxCell>
        <mxCell id="p5LRZWWwHKfmS-p1OV6v-12" value="Raw IQ Output" style="swimlane;fontStyle=0;align=center;verticalAlign=top;childLayout=stackLayout;horizontal=1;startSize=26;horizontalStack=0;resizeParent=1;resizeLast=0;collapsible=1;marginBottom=0;rounded=0;shadow=0;strokeWidth=1;" parent="1" vertex="1">
          <mxGeometry x="1650" y="960" width="310" height="190" as="geometry">
            <mxRectangle x="550" y="140" width="160" height="26" as="alternateBounds" />
          </mxGeometry>
        </mxCell>
        <mxCell id="p5LRZWWwHKfmS-p1OV6v-14" value="" style="line;html=1;strokeWidth=1;align=left;verticalAlign=middle;spacingTop=-1;spacingLeft=3;spacingRight=3;rotatable=0;labelPosition=right;points=[];portConstraint=eastwest;" parent="p5LRZWWwHKfmS-p1OV6v-12" vertex="1">
          <mxGeometry y="26" width="310" height="124" as="geometry" />
        </mxCell>
        <mxCell id="p5LRZWWwHKfmS-p1OV6v-15" value="Text" style="text;html=1;align=left;verticalAlign=middle;resizable=0;points=[];autosize=1;strokeColor=none;fillColor=none;" parent="p5LRZWWwHKfmS-p1OV6v-12" vertex="1">
          <mxGeometry y="150" width="310" height="30" as="geometry" />
        </mxCell>
      </root>
    </mxGraphModel>
  </diagram>
  <diagram id="o8WH0-x4Snd6qCsO6gMD" name="Demod">
    <mxGraphModel dx="782" dy="461" grid="1" gridSize="10" guides="1" tooltips="1" connect="1" arrows="1" fold="1" page="1" pageScale="1" pageWidth="850" pageHeight="1100" math="0" shadow="0">
      <root>
        <mxCell id="0" />
        <mxCell id="1" parent="0" />
        <mxCell id="9FEild8CH5Atxt1EuK9X-1" value="" style="endArrow=classic;html=1;rounded=0;" parent="1" edge="1">
          <mxGeometry width="50" height="50" relative="1" as="geometry">
            <mxPoint x="100" y="300" as="sourcePoint" />
            <mxPoint x="170" y="300" as="targetPoint" />
          </mxGeometry>
        </mxCell>
        <mxCell id="9FEild8CH5Atxt1EuK9X-2" value="Receive Raw IF Signal (BW = Sample Rate" style="rounded=0;whiteSpace=wrap;html=1;" parent="1" vertex="1">
          <mxGeometry x="170" y="270" width="120" height="60" as="geometry" />
        </mxCell>
        <mxCell id="9FEild8CH5Atxt1EuK9X-3" value="" style="endArrow=classic;html=1;rounded=0;" parent="1" edge="1">
          <mxGeometry width="50" height="50" relative="1" as="geometry">
            <mxPoint x="290" y="299.66" as="sourcePoint" />
            <mxPoint x="360" y="299.66" as="targetPoint" />
          </mxGeometry>
        </mxCell>
        <mxCell id="9FEild8CH5Atxt1EuK9X-4" value="Rational Resampler to Desired BW of signal" style="rounded=0;whiteSpace=wrap;html=1;" parent="1" vertex="1">
          <mxGeometry x="530" y="270" width="120" height="60" as="geometry" />
        </mxCell>
        <mxCell id="9FEild8CH5Atxt1EuK9X-5" value="Translating filter to Center signal of interest&amp;nbsp;" style="rounded=0;whiteSpace=wrap;html=1;" parent="1" vertex="1">
          <mxGeometry x="360" y="270" width="120" height="60" as="geometry" />
        </mxCell>
        <mxCell id="9FEild8CH5Atxt1EuK9X-8" value="" style="endArrow=classic;html=1;rounded=0;" parent="1" edge="1">
          <mxGeometry width="50" height="50" relative="1" as="geometry">
            <mxPoint x="480" y="299.66" as="sourcePoint" />
            <mxPoint x="530" y="300" as="targetPoint" />
          </mxGeometry>
        </mxCell>
        <mxCell id="9FEild8CH5Atxt1EuK9X-9" value="" style="endArrow=classic;html=1;rounded=0;exitX=0.5;exitY=1;exitDx=0;exitDy=0;" parent="1" source="9FEild8CH5Atxt1EuK9X-4" edge="1">
          <mxGeometry width="50" height="50" relative="1" as="geometry">
            <mxPoint x="350" y="350" as="sourcePoint" />
            <mxPoint x="590" y="420" as="targetPoint" />
          </mxGeometry>
        </mxCell>
        <mxCell id="9FEild8CH5Atxt1EuK9X-10" value="Specific Demod Block" style="rounded=0;whiteSpace=wrap;html=1;" parent="1" vertex="1">
          <mxGeometry x="530" y="420" width="120" height="60" as="geometry" />
        </mxCell>
      </root>
    </mxGraphModel>
  </diagram>
  <diagram id="ntWBa-KdDc-rfuYGaNgm" name="ExampleThreadCommunication">
    <mxGraphModel dx="782" dy="461" grid="1" gridSize="10" guides="1" tooltips="1" connect="1" arrows="1" fold="1" page="1" pageScale="1" pageWidth="850" pageHeight="1100" math="0" shadow="0">
      <root>
        <mxCell id="0" />
        <mxCell id="1" parent="0" />
        <mxCell id="mDnynBtGoeDfzt1srOD1-1" value="" style="whiteSpace=wrap;html=1;" vertex="1" parent="1">
          <mxGeometry x="110" y="300" width="120" height="60" as="geometry" />
        </mxCell>
        <mxCell id="mDnynBtGoeDfzt1srOD1-2" value="#include &amp;lt;condition_variable&amp;gt;&lt;div&gt;#include &amp;lt;thread&amp;gt;&lt;/div&gt;&lt;div&gt;#include &amp;lt;mutex&amp;gt;&lt;/div&gt;&lt;div&gt;&lt;br&gt;&lt;/div&gt;" style="text;html=1;align=left;verticalAlign=middle;resizable=0;points=[];autosize=1;strokeColor=none;fillColor=none;" vertex="1" parent="1">
          <mxGeometry x="40" y="8" width="180" height="70" as="geometry" />
        </mxCell>
        <mxCell id="mDnynBtGoeDfzt1srOD1-3" value="Demod Thread w&lt;b&gt;aits until&lt;/b&gt; internal demod buffer is filled.&amp;nbsp;&lt;div&gt;&lt;br&gt;&lt;/div&gt;&lt;div&gt;HackRF checks if Demod thread is ready to receive new data&lt;/div&gt;&lt;div&gt;&lt;span style=&quot;white-space: pre;&quot;&gt;&#x9;&lt;/span&gt;If so, HackRF acquires the mutex lock for the Internal Buffer&lt;/div&gt;&lt;div&gt;&lt;span style=&quot;white-space: pre;&quot;&gt;&#x9;&lt;/span&gt;&lt;span style=&quot;white-space: pre;&quot;&gt;&#x9;&lt;/span&gt;HackRF writes the hackrf_transfer buffer to Demods internal buffer.&amp;nbsp;&lt;/div&gt;&lt;div&gt;&lt;span style=&quot;white-space: pre;&quot;&gt;&#x9;&lt;/span&gt;&lt;span style=&quot;white-space: pre;&quot;&gt;&#x9;&lt;/span&gt;HackRF releases the mutex lock.&amp;nbsp;&lt;br&gt;&lt;/div&gt;&lt;div&gt;&lt;span style=&quot;white-space: pre;&quot;&gt;&#x9;&lt;/span&gt;Demod Locks the internal buffer and sets the condition variable to &quot;&lt;b&gt;not_ready&quot;&lt;/b&gt;&lt;br&gt;&lt;/div&gt;" style="text;html=1;align=left;verticalAlign=middle;resizable=0;points=[];autosize=1;strokeColor=none;fillColor=none;" vertex="1" parent="1">
          <mxGeometry x="40" y="60" width="470" height="110" as="geometry" />
        </mxCell>
        <mxCell id="mDnynBtGoeDfzt1srOD1-4" value="Shared condition variable between hackrf and Demod thread.&amp;nbsp;&lt;div&gt;&lt;div style=&quot;&quot;&gt;&lt;span style=&quot;background-color: initial;&quot;&gt;Main should distribute the condition variable between two thread objects to associate them together.&amp;nbsp;&lt;/span&gt;&lt;/div&gt;&lt;div style=&quot;&quot;&gt;&lt;span style=&quot;background-color: initial;&quot;&gt;&lt;br&gt;&lt;/span&gt;&lt;/div&gt;&lt;div&gt;&lt;br&gt;&lt;/div&gt;&lt;/div&gt;" style="text;html=1;align=left;verticalAlign=middle;resizable=0;points=[];autosize=1;strokeColor=none;fillColor=none;" vertex="1" parent="1">
          <mxGeometry x="40" y="180" width="560" height="70" as="geometry" />
        </mxCell>
      </root>
    </mxGraphModel>
  </diagram>
</mxfile>
